<?xml version="1.0" encoding="UTF-8"?>
<svg id="Capa_1" data-name="Capa 1" xmlns="http://www.w3.org/2000/svg" viewBox="0 0 835.006 400">
  <defs>
    <style>
      .cls-1 {
        fill: #5295fe;
      }
    </style>
  </defs>
  <circle class="cls-1" cx="255.804" cy="142.162" r="12.368"/>
  <circle class="cls-1" cx="215.632" cy="158.568" r="12.368"/>
  <path class="cls-1" d="M321.283,206.519c-6.073-4.076-12.11-7.2-17.395-9.544,18.761-20.918,24.873-55.186,5.136-90.282h-22.608c18.14,25.489,23.509,60.423-.457,81.304-2.133-5.357-5.065-10.32-8.81-14.547l-.216-.254c-6.271-7.134-16.35-14.141-28.828-7.109-4.989,2.818-8.518,7.743-9.939,13.862-1.739,7.477-.101,16.096,4.291,22.519,4.684,6.778,12.059,11.171,20.259,12.046l1.041.114c2.361.254,4.849.203,7.362-.101-.559,8.226-3.364,16.362-8.949,22.392-7.197,7.782-15.639,11.615-25.058,11.399-12.135-.279-22.252-7.02-25.781-11.209-20.678-24.525-.419-53.657.457-54.876l-15.461-11.12c-10.46,14.484-23.826,49.481.444,78.27,7.058,8.378,22.557,17.568,39.91,17.962.394.013.8.013,1.193.013,14.446,0,27.66-6.03,38.272-17.505,9.13-9.876,13.824-23.854,14.049-37.897,5.486,2.03,13.24,5.443,20.93,10.678,17.827,12.136,27.125,28.174,27.634,47.67l19.033-.496c-.673-25.823-13.299-47.707-36.51-63.291ZM265.788,195.702l-1.041-.114c-2.678-.292-5.09-1.726-6.601-3.91-1.384-2.031-1.98-5.078-1.434-7.426.254-1.092.635-1.523.749-1.587.305-.165.584-.317.939-.317.749,0,1.841.686,4.227,3.415l.254.292c2.31,2.602,4.189,5.903,5.585,9.609-.99.102-1.891.114-2.678.038Z"/>
  <path class="cls-1" d="M575.568,187.515c-4.054-8.309-10.063-15.21-18.028-20.706-7.967-5.492-17.995-8.241-30.08-8.241-3.434,0-6.869.412-10.301,1.236-3.434.824-6.627,1.925-9.58,3.296-2.955,1.375-5.633,2.955-8.034,4.739-2.297,1.706-4.109,3.476-5.463,5.305v-11.574h-20.919v165.879h20.919v-71.799c3.944,5.088,8.715,8.786,14.322,11.081,5.697,2.334,12.053,3.502,19.057,3.502,11.95,0,21.943-2.748,29.977-8.241,8.035-5.492,14.077-12.393,18.131-20.706,4.05-8.308,6.078-17.271,6.078-26.885s-2.028-18.575-6.078-26.887ZM557.334,231.296c-2.472,5.221-6.181,9.58-11.126,13.082-4.944,3.503-11.195,5.255-18.748,5.255-7.417,0-13.632-1.752-18.645-5.255-5.014-3.502-8.756-7.861-11.227-13.082-1.906-4.022-3.069-8.291-3.506-12.803v-8.113c.443-4.536,1.639-8.828,3.609-12.872,2.54-5.218,6.284-9.58,11.229-13.082,4.944-3.503,11.125-5.254,18.541-5.254s13.598,1.75,18.543,5.254c4.945,3.502,8.654,7.864,11.126,13.082,2.472,5.221,3.741,10.852,3.812,16.895.067,6.044-1.133,11.675-3.606,16.894Z"/>
  <path class="cls-1" d="M691.907,187.515c-4.054-8.309-10.063-15.21-18.028-20.706-7.967-5.492-17.995-8.241-30.08-8.241-3.434,0-6.869.412-10.301,1.236-3.434.824-6.627,1.925-9.58,3.296-2.955,1.375-5.633,2.955-8.034,4.739-2.235,1.66-4.007,3.382-5.349,5.16v-11.429h-20.919v1.119h0v154.52h0v10.241h20.919v-71.658c3.922,5.013,8.654,8.667,14.207,10.94,5.697,2.334,12.053,3.502,19.057,3.502,11.95,0,21.943-2.748,29.977-8.241,8.035-5.492,14.077-12.393,18.131-20.706,4.05-8.308,6.078-17.271,6.078-26.885s-2.028-18.575-6.078-26.887ZM673.673,231.296c-2.472,5.221-6.181,9.58-11.126,13.082-4.944,3.503-11.195,5.255-18.748,5.255-7.417,0-13.632-1.752-18.645-5.255-5.014-3.502-8.756-7.861-11.227-13.082-1.764-3.722-2.886-7.657-3.392-11.798v-10.13c.515-4.163,1.672-8.119,3.495-11.861,2.54-5.218,6.284-9.58,11.229-13.082,4.944-3.503,11.125-5.254,18.541-5.254s13.598,1.75,18.543,5.254c4.945,3.502,8.654,7.864,11.126,13.082,2.472,5.221,3.741,10.852,3.812,16.895.067,6.044-1.133,11.675-3.606,16.894Z"/>
  <path class="cls-1" d="M183.103,257.395c-5.763,5.966-13.113,12.719-27.266,12.719-4.519,0-9.394-.939-14.509-3.211-14.217-6.296-22.303-21.237-24.068-44.403-1.231-16.375.66-37.345,5.611-62.327,3.922-19.663,9.063-38.59,13.468-53.289h19.929c-4.621,14.953-10.511,35.809-14.75,57.186-9.508,47.957-6.766,79.096,7.527,85.43,11.945,5.293,23.433-7.121,24.309-8.289l9.749,16.185Z"/>
  <path class="cls-1" d="M443.163,161.664v11.738c-1.375-1.921-3.264-3.776-5.665-5.562-2.405-1.784-5.084-3.364-8.035-4.739-2.955-1.371-6.149-2.472-9.58-3.296-3.435-.824-6.87-1.236-10.301-1.236-11.95,0-21.942,2.75-29.977,8.241-8.035,5.495-14.045,12.396-18.027,20.706-3.985,8.312-6.011,17.273-6.078,26.887-.071,9.615,1.921,18.577,5.975,26.885,4.049,8.313,10.094,15.214,18.13,20.706,8.035,5.493,18.027,8.241,29.977,8.241,7.005,0,13.356-1.168,19.057-3.502,5.699-2.334,10.539-6.11,14.525-11.332v14.834h20.603v-108.57h-20.603ZM439.455,231.296c-2.473,5.221-6.181,9.58-11.126,13.082-4.945,3.503-11.196,5.255-18.748,5.255-7.417,0-13.634-1.752-18.645-5.255-5.016-3.502-8.756-7.861-11.229-13.082-2.472-5.219-3.676-10.849-3.605-16.894.067-6.043,1.339-11.674,3.811-16.895,2.473-5.218,6.181-9.58,11.126-13.082,4.945-3.503,11.126-5.254,18.543-5.254s13.598,1.75,18.543,5.254c4.945,3.502,8.685,7.864,11.229,13.082,2.539,5.221,3.811,10.852,3.811,16.895s-1.236,11.675-3.708,16.894Z"/>
</svg>