<?xml version="1.0" encoding="UTF-8"?>
<svg xmlns="http://www.w3.org/2000/svg" xmlns:xlink="http://www.w3.org/1999/xlink" viewBox="0 0 1719.476 2660.187">
  <defs>
    <style>
      .cls-1 {
        fill: url(#Degradado_sin_nombre_18-2);
      }

      .cls-1, .cls-2 {
        mix-blend-mode: multiply;
      }

      .cls-2 {
        fill: url(#Degradado_sin_nombre_18);
      }

      .cls-3 {
        isolation: isolate;
      }

      .cls-4 {
        fill: url(#Degradado_sin_nombre_44-2);
      }

      .cls-5 {
        fill: url(#Degradado_sin_nombre_44);
      }

      .cls-6 {
        fill: url(#Degradado_sin_nombre_69);
      }
    </style>
    <linearGradient id="Degradado_sin_nombre_69" data-name="Degradado sin nombre 69" x1="797.514" y1="351.276" x2="974.453" y2="236.204" gradientUnits="userSpaceOnUse">
      <stop offset="0" stop-color="#5913ef"/>
      <stop offset=".89" stop-color="#5295fe"/>
    </linearGradient>
    <linearGradient id="Degradado_sin_nombre_44" data-name="Degradado sin nombre 44" x1="95.002" y1="933.137" x2="1160.531" y2="933.137" gradientUnits="userSpaceOnUse">
      <stop offset="0" stop-color="#5913ef"/>
      <stop offset=".494" stop-color="#5295fe"/>
    </linearGradient>
    <linearGradient id="Degradado_sin_nombre_18" data-name="Degradado sin nombre 18" x1="869.101" y1="1316.358" x2="647.735" y2="1227.51" gradientUnits="userSpaceOnUse">
      <stop offset="0" stop-color="#fff"/>
      <stop offset="1" stop-color="#5913ef"/>
    </linearGradient>
    <linearGradient id="Degradado_sin_nombre_18-2" data-name="Degradado sin nombre 18" x1="630.746" y1="1126.037" x2="854.446" y2="1188.207" gradientTransform="translate(340.609 -74.259) rotate(15.33)" xlink:href="#Degradado_sin_nombre_18"/>
    <linearGradient id="Degradado_sin_nombre_44-2" data-name="Degradado sin nombre 44" x1="95.003" y1="933.137" x2="1160.53" y2="933.137" xlink:href="#Degradado_sin_nombre_44"/>
  </defs>
  <g class="cls-3">
    <g id="Capa_1" data-name="Capa 1">
      <circle class="cls-6" cx="898.521" cy="285.586" r="50.31"/>
    </g>
    <g id="Capa_2" data-name="Capa 2">
      <path class="cls-5" d="M430.024,1519.464c-37.259,0-73.211-6.26-106.39-18.697-52.771-19.781-98.544-54.611-136.049-103.523-40.221-52.453-70.898-121.494-91.18-205.206-6.438-26.569,9.884-53.326,36.453-59.764,26.571-6.431,53.327,9.885,59.764,36.453,17.013,70.221,41.751,126.837,73.525,168.275,26.054,33.979,57.087,57.888,92.236,71.063,37.916,14.214,80.391,16.341,126.247,6.325,39.373-8.6,78.916-25.973,111.345-48.919,37.801-26.748,66.567-59.721,88.31-95.877-14.912-12.486-29.764-26.078-44.484-40.738-41.196-41.025-79.699-89.249-111.348-139.458-32.625-51.759-58.029-105.813-73.466-156.32-36.604-119.765-52.47-228.894-45.88-315.59,3.165-41.631,11.414-77.788,24.519-107.469,14.52-32.885,34.633-57.307,59.783-72.587,27.565-16.746,59.239-21.235,91.597-12.982,28.519,7.273,56.483,24.202,83.118,50.316,41.642,40.828,77.313,113.432,99.904,167.148,28.601,68.004,52.029,143.158,64.28,206.192,5.965,30.691,24.086,140.445,6.842,264.159-6.209,44.543-16.383,86.281-30.372,124.713,4.048,2.373,8.076,4.629,12.078,6.764,35.714,19.045,69.536,28.463,97.825,27.199,27.898-1.234,51.196-12.649,71.225-34.897,25.977-28.857,45.73-74.648,58.714-136.101,18.081-85.585,17.255-195.577-2.327-309.713-22.208-129.446-67.259-257.289-130.281-369.708-13.368-23.847-4.875-54.016,18.972-67.384,23.847-13.367,54.016-4.875,67.384,18.972,68.477,122.147,117.406,260.942,141.5,401.38,21.647,126.176,22.221,249.38,1.614,346.916-16.629,78.713-44.217,139.903-81.996,181.872-37.63,41.803-86.189,65.167-140.429,67.566-3.145.14-6.314.209-9.493.209-46.751.002-96.979-14.992-147.953-43.615-29.739,47.795-67.437,87.994-112.45,119.847-43.014,30.436-95.362,53.458-147.403,64.824-25.532,5.577-50.923,8.354-75.733,8.354ZM554.118,519.571c-3.312,0-6.46.742-9.305,2.471-30.801,18.713-70.143,136.733,4.851,382.099,26.201,85.726,86.013,180.891,159.996,254.567,5.187,5.166,10.414,10.19,15.673,15.069,39.823-137.668,14.38-283.189,9.795-306.783-11.009-56.646-32.278-124.694-58.355-186.699-26.564-63.161-54.978-112.308-77.957-134.837-6.936-6.801-27.918-25.887-44.697-25.887Z"/>
      <path class="cls-2" d="M765.611,1326.439s17.355-19.447,27.661-46.13c10.457-27.077,15.507-43.33,15.507-43.33,0,0,31.072,21.111,74.844,30.7l-22.992,96.341s-38.521-6.605-95.021-37.581Z"/>
      <path class="cls-1" d="M611.515,1199.092l63.261-77.903s19.829,23.577,34.884,37.519c6.629,6.139,9.262,8.736,15.673,15.069,0,0-3.081,13.011-17.116,47.43-15.641,38.359-23.931,48.387-23.931,48.387,0,0-27.418-21.363-72.771-70.503Z"/>
      <path class="cls-4" d="M832.307,848.107c-12.25-63.04-35.68-138.19-64.28-206.19-22.4-53.27-57.66-125.1-98.85-166.11v186.93c2.55,5.72,5.08,11.58,7.6,17.56,26.07,62,47.34,130.05,58.35,186.7,4.59,23.59,30.03,169.11-9.79,306.78-.06-.06-.13-.12-.19-.18-3.23,12.96-7.5,26.59-12.82,40.45-11.43,29.8-25.7,55.6-40.06,74.15-20.02,28.86-45.08,55.19-76.29,77.27-32.43,22.95-71.97,40.32-111.35,48.92-45.85,10.02-88.33,7.89-126.24-6.32-35.15-13.18-66.19-37.09-92.24-71.07-31.77-41.43-56.51-98.05-73.52-168.27-6.44-26.57-33.2-42.89-59.77-36.45-26.57,6.43-42.89,33.19-36.45,59.76,20.28,83.71,50.96,152.75,91.18,205.2,37.5,48.92,83.28,83.75,136.05,103.53,33.18,12.44,69.13,18.7,106.39,18.7,24.81,0,50.2-2.78,75.73-8.36,52.04-11.36,104.39-34.39,147.4-64.82,42.25-29.89,78.05-67.14,106.88-111.13.01-.01.01-.02.02-.03,32.59-58.34,51.49-100.09,57.1-123.05.01-.02.02-.05.03-.07,9.73-31.34,17.07-64.67,21.96-99.74,17.25-123.72-.87-233.47-6.84-264.16ZM1143.867,773.487c-24.09-140.43-73.02-279.23-141.5-401.38-13.37-23.84-43.54-32.34-67.38-18.97-23.85,13.37-32.34,43.54-18.97,67.39,63.02,112.41,108.07,240.26,130.28,369.7,19.58,114.14,20.4,224.13,2.32,309.72-12.98,61.45-32.73,107.24-58.71,136.1-20.03,22.24,35.95,108.03,73.58,66.23,37.78-41.97,65.37-103.16,81.99-181.87,20.61-97.54,20.04-220.74-1.61-346.92Z"/>
    </g>
  </g>
</svg>