<?xml version="1.0" encoding="UTF-8"?>
<svg xmlns="http://www.w3.org/2000/svg" xmlns:xlink="http://www.w3.org/1999/xlink" viewBox="0 0 1719.476 2660.187">
  <defs>
    <style>
      .cls-1 {
        fill: url(#Degradado_sin_nombre_18-2);
      }

      .cls-1, .cls-2 {
        mix-blend-mode: multiply;
      }

      .cls-2 {
        fill: url(#Degradado_sin_nombre_18);
      }

      .cls-3 {
        isolation: isolate;
      }

      .cls-4 {
        fill: url(#Degradado_sin_nombre_44-2);
      }

      .cls-5 {
        fill: url(#Degradado_sin_nombre_69-2);
      }

      .cls-6 {
        fill: url(#Degradado_sin_nombre_44);
      }

      .cls-7 {
        fill: url(#Degradado_sin_nombre_69);
      }
    </style>
    <linearGradient id="Degradado_sin_nombre_69" data-name="Degradado sin nombre 69" x1="356.877" y1="882.257" x2="533.815" y2="767.186" gradientUnits="userSpaceOnUse">
      <stop offset="0" stop-color="#5913ef"/>
      <stop offset=".89" stop-color="#5295fe"/>
    </linearGradient>
    <linearGradient id="Degradado_sin_nombre_69-2" data-name="Degradado sin nombre 69" x1="699.408" y1="975.714" x2="988.219" y2="787.887" xlink:href="#Degradado_sin_nombre_69"/>
    <linearGradient id="Degradado_sin_nombre_44" data-name="Degradado sin nombre 44" x1="419.815" y1="1989.662" x2="852.415" y2="1989.662" gradientUnits="userSpaceOnUse">
      <stop offset="0" stop-color="#5913ef"/>
      <stop offset=".494" stop-color="#5295fe"/>
    </linearGradient>
    <linearGradient id="Degradado_sin_nombre_44-2" data-name="Degradado sin nombre 44" x1="137.744" y1="1371.007" x2="976.923" y2="1371.007" xlink:href="#Degradado_sin_nombre_44"/>
    <linearGradient id="Degradado_sin_nombre_18" data-name="Degradado sin nombre 18" x1="585.191" y1="1614.706" x2="329.915" y2="1512.247" gradientUnits="userSpaceOnUse">
      <stop offset="0" stop-color="#fff"/>
      <stop offset="1" stop-color="#5913ef"/>
    </linearGradient>
    <linearGradient id="Degradado_sin_nombre_18-2" data-name="Degradado sin nombre 18" x1="439.314" y1="1466.535" x2="664.154" y2="1529.021" gradientTransform="translate(340.609 -74.259) rotate(15.33)" xlink:href="#Degradado_sin_nombre_18"/>
  </defs>
  <g class="cls-3">
    <g id="Capa_1" data-name="Capa 1">
      <circle class="cls-7" cx="457.884" cy="816.568" r="50.31"/>
      <circle class="cls-5" cx="928.423" cy="826.774" r="50.31"/>
    </g>
    <g id="Capa_2" data-name="Capa 2">
      <image width="1080" height="1900" transform="translate(1675.849 -392.105)" xlink:href="../../../../Downloads/aa.png"/>
      <path class="cls-6" d="M790.912,2456.103c-2.209,0-4.441-.15-6.691-.461-26.534-3.661-45.076-28.14-41.415-54.675,20.514-148.668,16.005-282.586-13.403-398.031-23.155-90.9-61.781-170.712-114.805-237.219-47.188-59.188-97.469-96.918-131.339-118.146-37.028-23.208-63.184-32.391-63.443-32.48l.207.07,30.918-91.941c5.138,1.729,127.088,43.848,235.392,176.925,62.88,77.262,108.609,169.578,135.918,274.383,33.542,128.725,39.142,276.661,16.646,439.698-3.351,24.285-24.142,41.876-47.983,41.877Z"/>
      <path class="cls-4" d="M186.292,1805.938c-17.818,0-34.967-9.855-43.45-26.889-11.942-23.976-2.186-53.094,21.791-65.035,71.24-35.482,171.851-104.229,182.796-111.751,17.783-13.729,34.201-28.955,49.104-45.477-10.087-14.34-19.204-30.205-27.378-47.615-43.967-80.641-72.19-171.247-81.638-262.131-9.058-87.13.467-165.883,26.816-221.753,28.956-61.396,70.675-81.059,100.574-86.743,56.901-10.817,108.547,14.143,145.422,70.284,23.393,35.613,33.433,72.397,34.501,76.475.351,1.341.644,2.695.879,4.061,22.077,128.257,9.629,260.474-35.998,382.355-9.524,25.442-21.173,49.875-34.784,73.084,20.437,10.402,45.025,16.14,74.58,17.455,59.04,2.625,107.016-14.545,146.694-52.497,48.63-46.513,84.717-123.995,107.258-230.296,17.561-82.807,26.464-181.1,26.464-292.148,0-26.786,21.714-48.5,48.5-48.5s48.5,21.714,48.5,48.5c0,117.798-9.613,222.861-28.573,312.271-26.663,125.731-72.117,220.029-135.101,280.271-55.309,52.902-123.246,79.659-202.113,79.661-5.269,0-10.576-.119-15.941-.357-49.731-2.214-92.325-14.007-128.21-35.665-18.688,20.511-39.241,39.415-61.478,56.47-.628.481-1.268.947-1.918,1.397-4.633,3.206-114.394,78.975-195.712,119.476-6.943,3.459-14.32,5.098-21.585,5.098ZM440.179,1033.036c-2.938,0-5.35.459-7.155.802-14.792,2.812-25.745,21.774-30.958,32.827-18.63,39.501-25.216,101.591-18.068,170.347,8.062,77.562,33.271,158.154,70.98,226.931.521.951,1.011,1.92,1.468,2.904.015.032.028.062.043.094,4.526-9.537,8.656-19.284,12.379-29.229,39.304-104.989,50.243-218.821,31.68-329.354-1.869-6.197-9.062-28.214-22.271-47.745-15.882-23.484-29.326-27.577-38.097-27.577Z"/>
      <path class="cls-2" d="M466.985,1623.498s13.866-13.613,31.869-38.02c22.179-30.07,26.074-40.674,26.074-40.674,0,0,28.584,16.936,77.97,17.584l-22.859,95.784s-60.829-2.51-113.054-34.673Z"/>
      <path class="cls-1" d="M345.684,1461.887l77.806-65.282s7.919,19.13,15.591,36.09c3.724,8.233,13.644,26.657,17.407,34.245,0,0-3.083,7.46-24.364,44.084-20.812,35.817-35.085,45.121-35.085,45.121,0,0-9.772-7.743-51.355-94.258Z"/>
    </g>
  </g>
</svg>