<?xml version="1.0" encoding="UTF-8"?>
<svg xmlns="http://www.w3.org/2000/svg" xmlns:xlink="http://www.w3.org/1999/xlink" viewBox="0 0 1719.476 2660.187">
  <defs>
    <style>
      .cls-1 {
        fill: url(#Degradado_sin_nombre_101-2);
      }

      .cls-1, .cls-2 {
        mix-blend-mode: multiply;
      }

      .cls-3 {
        isolation: isolate;
      }

      .cls-4 {
        fill: url(#Degradado_sin_nombre_44);
      }

      .cls-2 {
        fill: url(#Degradado_sin_nombre_101);
      }
    </style>
    <linearGradient id="Degradado_sin_nombre_44" data-name="Degradado sin nombre 44" x1="593.662" y1="1939.519" x2="1719.898" y2="1939.519" gradientUnits="userSpaceOnUse">
      <stop offset="0" stop-color="#5913ef"/>
      <stop offset=".494" stop-color="#5295fe"/>
    </linearGradient>
    <linearGradient id="Degradado_sin_nombre_101" data-name="Degradado sin nombre 101" x1="1463.958" y1="2469.544" x2="1248.516" y2="2383.073" gradientTransform="translate(-1527.766 2453.901) rotate(-65.383)" gradientUnits="userSpaceOnUse">
      <stop offset="0" stop-color="#fff"/>
      <stop offset="1" stop-color="#5913ef"/>
    </linearGradient>
    <linearGradient id="Degradado_sin_nombre_101-2" data-name="Degradado sin nombre 101" x1="1273.322" y1="2330.935" x2="1070.651" y2="2249.59" gradientTransform="translate(2450.34 -48.893) rotate(-179.945) scale(1 -1)" xlink:href="#Degradado_sin_nombre_101"/>
  </defs>
  <g class="cls-3">
    <g id="Capa_2" data-name="Capa 2">
      <g>
        <path class="cls-4" d="M1418.139,2597.432c-20.352,0-39.303-12.908-46.04-33.288-21.743-65.762-65.11-158.641-117.459-252.657-53.487,20.875-125.931,25.406-222.188-10.097-92.255-34.029-197.354-102.764-295.935-193.544-.516-.476-51.929-48.115-92.904-111.237-71.489-110.129-53.182-180.242-25.234-219.668,26.387-37.224,63.855-59.463,108.355-64.314,57.249-6.24,126.383,16.258,205.497,66.873,54.585,34.921,99.604,74.198,116.427,89.465,42.255,38.347,86.994,88.797,132.974,149.95,32.41,43.106,64.882,90.728,96.845,142.007,3.749-30.451-8.929-71.478-18.748-97.498-26.976-71.479-75.48-149.725-109.619-202.362-9.271-14.294-21.482-32.172-34.412-51.1-55.475-81.211-124.515-182.281-142.929-255.691-30.054-119.819,7.7-186.482,44.665-221.307,25.953-24.45,59.98-41.021,98.403-47.918,31.632-5.68,64.547-4.279,90.308,3.842,64.936,20.47,157.409,73.728,274.852,158.295,85.688,61.702,152.394,116.891,155.191,119.21,20.622,17.094,23.481,47.669,6.387,68.291-17.095,20.623-47.67,23.482-68.291,6.387-.661-.548-67.35-55.707-150.447-115.516-107.286-77.219-192.647-127.066-246.854-144.155-17.591-5.542-64.444-4.765-93.032,22.167-11.204,10.556-18.474,23.987-22.224,41.062-5.097,23.208-3.371,52.156,5.129,86.042,14.197,56.604,83.247,157.688,128.939,224.577,13.266,19.421,25.796,37.764,35.698,53.032,36.577,56.398,88.708,140.657,118.988,220.895,16.692,44.231,25.086,82.303,25.659,116.39.761,45.173-12.442,82.298-39.241,110.345-.462.484-.933.972-1.401,1.455,56.951,101.606,104.664,203.641,128.698,276.331,8.408,25.432-5.392,52.864-30.824,61.272-5.052,1.671-10.187,2.465-15.232,2.465ZM746.205,1808.586c-3.077,0-6.062.153-8.957.469-17.04,1.858-29.295,9.255-39.734,23.982-8.663,12.221-16.614,42.86,27.46,110.757,33.298,51.294,76.828,92.308,77.252,92.698,89.473,82.393,183.156,144.148,263.794,173.892,43.785,16.148,82.915,22.65,116.31,19.327,7.728-.77,15.132-2.061,22.233-3.884-75.514-123.069-153.465-223.661-221.091-285.031-74.046-67.197-174.099-132.21-237.267-132.21Z"/>
        <path class="cls-2" d="M1335.497,2257.364s-15.391-30.37-31.072-56.33c-18.576-30.751-26.116-40.647-26.116-40.647,0,0,6.259-14.468-8.735-67.611l106.497,62.889s.986,61.257-40.573,101.698Z"/>
        <path class="cls-1" d="M1254.64,2311.487s-10.936-15.698-25.972-42.037c-18.277-32.017-24.076-43.597-24.076-43.597,0,0-20.962,6.941-58.467,3.828l14.194,97.912s45.468,2.382,94.32-16.106Z"/>
      </g>
    </g>
  </g>
</svg>