<?xml version="1.0" encoding="UTF-8"?>
<svg xmlns="http://www.w3.org/2000/svg" xmlns:xlink="http://www.w3.org/1999/xlink" viewBox="0 0 1719.476 2660.187">
  <defs>
    <style>
      .cls-1 {
        fill: url(#Degradado_sin_nombre_101-2);
      }

      .cls-1, .cls-2 {
        mix-blend-mode: multiply;
      }

      .cls-3 {
        isolation: isolate;
      }

      .cls-4 {
        fill: url(#Degradado_sin_nombre_44);
      }

      .cls-2 {
        fill: url(#Degradado_sin_nombre_101);
      }
    </style>
    <linearGradient id="Degradado_sin_nombre_44" data-name="Degradado sin nombre 44" x1="423.942" y1="1170.44" x2="1626.964" y2="1170.44" gradientUnits="userSpaceOnUse">
      <stop offset="0" stop-color="#5913ef"/>
      <stop offset=".494" stop-color="#5295fe"/>
    </linearGradient>
    <linearGradient id="Degradado_sin_nombre_101" data-name="Degradado sin nombre 101" x1="1090.189" y1="807.681" x2="815.214" y2="697.316" gradientTransform="translate(-212.768 818.961) rotate(35.073) scale(1 -1)" gradientUnits="userSpaceOnUse">
      <stop offset="0" stop-color="#fff"/>
      <stop offset="1" stop-color="#5913ef"/>
    </linearGradient>
    <linearGradient id="Degradado_sin_nombre_101-2" data-name="Degradado sin nombre 101" x1="932.086" y1="701.743" x2="657.528" y2="591.545" gradientTransform="translate(2008.736 698.783) rotate(-144.927) scale(1 -1)" xlink:href="#Degradado_sin_nombre_101"/>
  </defs>
  <g class="cls-3">
    <g id="Capa_2" data-name="Capa 2">
      <path class="cls-4" d="M1578.417,2233.171c-7.203,0-14.516-1.61-21.413-5.012-121.972-60.144-214.095-120.32-281.632-183.97-32.444-30.576-59.334-62.353-79.923-94.448-20.149-31.41-34.95-64.176-43.992-97.389-20.683-75.965-12.551-156.413,24.858-245.942,31.24-74.766,79.19-147.785,125.563-218.401,14.122-21.506,28.726-43.743,42.467-65.46,43.524-68.787,63.509-135.27,59.397-197.601-3.619-54.866-25.841-106.64-66.049-153.882-62.327-73.233-165.657-131.531-283.495-159.946-3.662-.883-7.331-1.735-10.99-2.555-6.575,97.508-32.317,189.015-76.585,272.152-27.817,52.242-73.003,100.952-127.234,137.158-54.761,36.56-116.351,58.734-173.425,62.44-82.332,5.331-152.657-26.789-198.028-90.481-41.976-58.928-54.222-125.424-35.416-192.301,15.521-55.199,52.534-110.609,107.035-160.24,45.847-41.75,102.948-78.345,160.787-103.044,53.062-22.659,114.101-35.402,181.419-37.875,20.932-.767,42.099-.538,63.422.686-4.364-49.256-13.976-99.262-28.77-149.508-21.894-74.358-54.999-147.407-95.736-211.25-37.983-59.524-80.734-108.537-123.632-141.738-21.182-16.396-25.063-46.857-8.669-68.04,16.396-21.181,46.857-25.061,68.04-8.669,51.619,39.952,102.116,97.447,146.031,166.27,45.577,71.426,82.583,153.044,107.017,236.03,18.702,63.52,30.045,126.912,33.926,189.352,11.169,2.178,22.353,4.617,33.547,7.316,66.324,15.993,128.57,40.069,185.01,71.561,60.204,33.591,110.542,73.902,149.616,119.814,25.82,30.338,46.421,62.945,61.228,96.914,15.839,36.337,25.173,74.507,27.741,113.451,5.492,83.259-19.479,169.34-74.218,255.851-14.18,22.41-29.012,44.996-43.355,66.839-88.302,134.468-171.707,261.478-137.909,385.618,13.666,50.194,45.346,98.188,96.85,146.727,59.576,56.146,146.381,112.522,258.003,167.563,24.024,11.846,33.896,40.924,22.05,64.948-8.444,17.127-25.649,27.061-43.535,27.062ZM905.594,792.862c-62.062,0-119.554,10.267-167.157,30.595-85.499,36.511-188.479,114.775-212.538,200.335-10.884,38.703-4,74.608,21.044,109.766,25.878,36.33,63.806,53.142,112.738,49.962,84.036-5.456,179.185-69.25,221.324-148.392,38.937-73.124,61.102-154.123,65.896-240.791-13.946-.983-27.741-1.475-41.308-1.475Z"/>
      <path class="cls-2" d="M1043.391,709.506s1.423,16.911,1.412,48.519c-.013,37.364-1.594,50.539-1.594,50.539,0,0,35.238,6.825,79.231,22.889l43.243-87.502s-60.34-23.014-122.292-34.445Z"/>
      <path class="cls-1" d="M946.902,794.337s1.785-22.45,1.077-52.77c-.873-37.354-2.795-44.506-2.795-44.506,0,0-44.849-3.694-106.187,2.355l-10.88,99.183s42.772-9.125,118.784-4.262Z"/>
    </g>
  </g>
</svg>