<?xml version="1.0" encoding="UTF-8"?>
<svg id="Capa_1" data-name="Capa 1" xmlns="http://www.w3.org/2000/svg" xmlns:xlink="http://www.w3.org/1999/xlink" viewBox="0 0 400 400">
  <defs>
    <style>
      .cls-1 {
        fill: url(#Degradado_sin_nombre_88-2);
      }

      .cls-2 {
        fill: url(#Degradado_sin_nombre_88-3);
      }

      .cls-3 {
        fill: url(#Degradado_sin_nombre_88);
      }
    </style>
    <linearGradient id="Degradado_sin_nombre_88" data-name="Degradado sin nombre 88" x1="142.36" y1="131.983" x2="258.127" y2="131.983" gradientUnits="userSpaceOnUse">
      <stop offset="0" stop-color="#5913ef"/>
      <stop offset=".494" stop-color="#5295fe"/>
      <stop offset="1" stop-color="#baea0f"/>
    </linearGradient>
    <linearGradient id="Degradado_sin_nombre_88-2" data-name="Degradado sin nombre 88" x1="113.825" y1="152.335" x2="209.553" y2="152.335" xlink:href="#Degradado_sin_nombre_88"/>
    <linearGradient id="Degradado_sin_nombre_88-3" data-name="Degradado sin nombre 88" x1="89.608" y1="187.658" x2="297.345" y2="187.658" xlink:href="#Degradado_sin_nombre_88"/>
  </defs>
  <circle class="cls-3" cx="181.277" cy="131.983" r="15.632"/>
  <circle class="cls-1" cx="129.457" cy="152.335" r="15.632"/>
  <path class="cls-2" d="M264.249,212.294c-7.675-5.152-15.305-9.1-21.985-12.062,23.711-26.437,31.436-69.747,6.491-114.104h-28.573c22.926,32.215,29.712,76.366-.578,102.757-2.695-6.77-6.401-13.043-11.134-18.386l-.273-.321c-7.925-9.016-20.664-17.872-36.434-8.984-6.305,3.562-10.765,9.786-12.562,17.519-2.198,9.449-.128,20.343,5.423,28.461,5.92,8.567,15.241,14.118,25.605,15.225l1.316.144c2.984.321,6.129.257,9.305-.128-.706,10.396-4.252,20.68-11.311,28.3-9.097,9.835-19.765,14.68-31.669,14.407-15.337-.353-28.124-8.872-32.584-14.166-26.135-30.996-.529-67.815.578-69.355l-19.541-14.054c-13.22,18.305-30.113,62.537.561,98.923,8.92,10.589,28.509,22.204,50.44,22.701.497.016,1.011.016,1.508.016,18.257,0,34.958-7.621,48.371-22.124,11.539-12.481,17.471-30.149,17.756-47.897,6.933,2.565,16.734,6.88,26.453,13.495,22.531,15.338,33.768,31.493,34.412,56.133h24.847c-.851-32.637-17.085-56.807-46.421-76.502ZM194.111,198.623l-1.316-.144c-3.385-.369-6.433-2.182-8.342-4.941-1.749-2.567-2.503-6.417-1.813-9.385.321-1.38.802-1.925.947-2.005.385-.208.738-.401,1.187-.401.947,0,2.326.866,5.342,4.316l.321.369c2.92,3.289,5.294,7.46,7.059,12.145-1.251.128-2.39.145-3.385.048Z"/>
</svg>